<svg id="shredded-paper-top" xmlns="http://www.w3.org/2000/svg" width="1920" height="78.537" viewBox="0 0 1920 78.537">
  <path id="Path_465" data-name="Path 465" d="M.45,122.463v72.89c.474.041.964.068,1.46.08h6.61a10.986,10.986,0,0,1,2.075.16,23.558,23.558,0,0,0,3.228.44c.455.047.882.111,1.268.19a14.074,14.074,0,0,0,2.729.24,11.889,11.889,0,0,1,1.46.06,3.726,3.726,0,0,1,1.153.22,2.9,2.9,0,0,1,.346.17,4.744,4.744,0,0,0,2.69.54h8.071a15.957,15.957,0,0,1,2.729.25c.231,0,.384.09.615.11,1.329.125,2.615.278,3.843.46a10.423,10.423,0,0,0,1.422.1,22.592,22.592,0,0,1,4.074.37,11.324,11.324,0,0,0,1.384.13c1.274.05,2.569.05,3.843,0a19.47,19.47,0,0,0,2.652-.32,9.172,9.172,0,0,1,2.767,0c.209.034.4.075.577.12a11.359,11.359,0,0,0,2.806.1,12.326,12.326,0,0,0,1.345-.16,4.034,4.034,0,0,1,.692,0,16.256,16.256,0,0,0,3.5-.09,8.757,8.757,0,0,1,2.767.06l.576.12a9.74,9.74,0,0,0,3.42,0c.769-.16,1.461-.34,2.229-.5a10.178,10.178,0,0,1,2.037-.19h5.15a14.38,14.38,0,0,0,2.037-.19c.406-.071.829-.134,1.268-.19a18.9,18.9,0,0,1,3.612,0,10.228,10.228,0,0,1,1.268.19c.433.05.884.091,1.345.12a5.775,5.775,0,0,0,1.922-.2c.192-.11.346-.23.576-.35a3.825,3.825,0,0,1,1.537-.35,6.668,6.668,0,0,1,1.383.08,20.256,20.256,0,0,0,4.036.41c.243,0,.487,0,.73,0a8.962,8.962,0,0,1,1.345.15,19.369,19.369,0,0,0,3.421.3q1.095-.015,2.191,0a14.257,14.257,0,0,1,2.114.16,19.63,19.63,0,0,0,3.151.32,17.4,17.4,0,0,1,2.729.26,12.238,12.238,0,0,0,2.729.24c.961,0,1.96,0,2.921.06a11.27,11.27,0,0,1,2,.23,10.648,10.648,0,0,0,2,.22c1.712.045,3.438.045,5.15,0a10.568,10.568,0,0,0,2-.2q2.084-.531,4.381-1a4.848,4.848,0,0,1,1.345,0,24.669,24.669,0,0,0,4.266.2,7.714,7.714,0,0,0,1.383-.12,19.254,19.254,0,0,1,4.151-.29,11.472,11.472,0,0,1,1.383.11c1.024.173,2.136.308,3.305.4a18.876,18.876,0,0,1,1.922.29,9.1,9.1,0,0,0,1.345.13c1.23,0,2.46,0,3.843.08a10.653,10.653,0,0,1,2,.22,9.416,9.416,0,0,0,1.96.23c1.23,0,2.46,0,3.843.06a9.756,9.756,0,0,1,1.384.11c.4.073.825.136,1.268.19a19.583,19.583,0,0,0,4.266,0,5.825,5.825,0,0,0,.653-.09,4.869,4.869,0,0,0,2.037-.78,1.514,1.514,0,0,1,.307-.17,4.558,4.558,0,0,1,1.729-.31q1.095-.015,2.191,0h5.15a8.578,8.578,0,0,0,2-.19q.55-.133,1.153-.25a9.328,9.328,0,0,1,3.305-.22,5.6,5.6,0,0,0,1.422,0,5.835,5.835,0,0,1,1.383-.06,14.284,14.284,0,0,0,2.844,0c.432-.054.883-.1,1.345-.13,1.448-.07,2.933-.07,4.381,0a8.371,8.371,0,0,1,1.345.15c.922.21,1.883.41,2.844.61a4.2,4.2,0,0,0,.653.07,23,23,0,0,0,3.613,0c.239-.017.471-.041.692-.07a6.078,6.078,0,0,1,2,0,22.364,22.364,0,0,0,2.806.19,18.584,18.584,0,0,0,3.459-.28,19.3,19.3,0,0,1,4.919,0,13.641,13.641,0,0,0,2.652.29c.5-.01,1-.01,1.5,0a8.166,8.166,0,0,1,1.922.23,20.128,20.128,0,0,0,2.191.51,6.386,6.386,0,0,0,1.384,0,4.036,4.036,0,0,0,.653-.1c.73-.16,1.461-.34,2.191-.51a9.326,9.326,0,0,1,2.114-.06,20.317,20.317,0,0,0,4.727.41h1.384a14.935,14.935,0,0,0,2.729-.25,13.165,13.165,0,0,1,1.96-.25c.462-.037.9-.091,1.307-.16a6.681,6.681,0,0,0,2.728-.88,3.144,3.144,0,0,1,1.806-.11c.231,0,.423.07.653.09a8.443,8.443,0,0,0,2.729-.15c1.461-.34,2.844-.7,4.3-1a10.5,10.5,0,0,1,2.806-.09c.225.026.444.056.653.09a14.778,14.778,0,0,0,1.922.26c.482.027.947.07,1.383.13l1.96.27h.692a18.662,18.662,0,0,0,3.536-.15,19.693,19.693,0,0,1,3.459-.27h11.8a10.473,10.473,0,0,0,2.037-.18,17.222,17.222,0,0,1,2.69-.27,11.582,11.582,0,0,0,1.46-.06c.995-.049,1.737-.267,1.806-.53v-.38c.192-.33.269-.35,1.345-.66,0-.05.307-.11.461-.15a10.248,10.248,0,0,1,2-.21,7.189,7.189,0,0,1,1.383.12,14.977,14.977,0,0,0,3.305.35,15.467,15.467,0,0,1,3.382.32,9.8,9.8,0,0,0,1.345.15,10.361,10.361,0,0,1,1.922.26c.538.13,1.153.24,1.729.36l.576.11a3.878,3.878,0,0,0,1.345,0c1.054-.158,2.145-.3,3.267-.42,1.013-.174,2.112-.312,3.267-.41a1.135,1.135,0,0,0,.5-.128c.082-.06.054-.127-.076-.182-.5-.22-.7-.477-.576-.73a1.845,1.845,0,0,1,.875-.284,6.6,6.6,0,0,1,1.392-.036c.825.139,1.685.262,2.575.37a30.368,30.368,0,0,1,3.19.46,9.661,9.661,0,0,0,1.383.12,15.424,15.424,0,0,0,3.5-.21,22.359,22.359,0,0,1,2.575-.36c.443-.054.868-.117,1.268-.19a30.614,30.614,0,0,0,3.151-.8,1.287,1.287,0,0,0,.577-.35.649.649,0,0,0,.23-.38c-.012-.257.314-.508.922-.71a1.738,1.738,0,0,0,.845-.53.385.385,0,0,1,.192-.38c.074-.258.529-.5,1.268-.67.539-.13,1.04-.271,1.5-.42a1.577,1.577,0,0,0,.922-.52v-.38a.648.648,0,0,0,0-.38c0-.325.516-.636,1.422-.86a16.177,16.177,0,0,1,6-.23c.231,0,.423.08.653.09a7.382,7.382,0,0,0,1.384-.08c.629-.1,1.221-.212,1.768-.34a9.9,9.9,0,0,1,1.845-.3,19.248,19.248,0,0,0,2.037-.23,17.473,17.473,0,0,1,2.69-.28q1.1-.025,2.191-.08c.538-.13,1.115-.25,1.691-.37l1.768-.34a3.058,3.058,0,0,1,1.307,0c.538.13,1.115.25,1.691.37a7.09,7.09,0,0,0,2.69,0c.586-.116,1.138-.243,1.652-.38a10.652,10.652,0,0,1,2-.22h3.651a4.022,4.022,0,0,0,1.268-.16c.4-.164.475-.369.192-.55l-.307-.17-.384-.16c-.728-.274-.6-.644.307-.88a5.38,5.38,0,0,1,3.075-.12,4.281,4.281,0,0,1,1.768.59l.307.18a6.411,6.411,0,0,0,2.537.16,38.113,38.113,0,0,0,3.843-.89,1.9,1.9,0,0,0,.923-.52,4.082,4.082,0,0,1,2.152-.44c.73,0,1.422-.06,2.152-.09a7.791,7.791,0,0,0,1.307-.16,16.31,16.31,0,0,1,3.5-.22,14.569,14.569,0,0,1,2.076.18,12.137,12.137,0,0,0,1.268.19,9.051,9.051,0,0,0,2.114-.08c1-.18,1.96-.39,2.882-.59a10.031,10.031,0,0,1,1.307-.19,13.42,13.42,0,0,0,2.959-.54,3.64,3.64,0,0,0,1.153-.49,6.523,6.523,0,0,1,2.114-.77,8.7,8.7,0,0,1,1.922-.25c.461,0,.961,0,1.461-.05a12.714,12.714,0,0,0,2.613-.32q.53-.133,1.115-.25a5.872,5.872,0,0,1,1.96-.17c1.691.06,2.075,0,2.383-.48a.3.3,0,0,0,0-.19c.116-.254.58-.488,1.307-.66a9.87,9.87,0,0,1,2.537-.36c.733,0,1.459-.038,2.152-.1a1.747,1.747,0,0,0,.653-.07,3.3,3.3,0,0,0,.692-.34.838.838,0,0,0,.192-.38v-.57c.047-.261.809-.476,1.806-.51q4.416-.067,8.839,0a22.329,22.329,0,0,1,2.806.21,7.685,7.685,0,0,0,2.037-.12c1.345-.28,2.459-.62,3.843-.93s1.46-.35,2.191-.51a5.822,5.822,0,0,1,.653-.09c.955-.061,1.938-.088,2.921-.08a20.008,20.008,0,0,0,4.112-.34,12.225,12.225,0,0,1,1.345-.13c.486-.009.974-.009,1.46,0h1.5a14.278,14.278,0,0,0,2.729-.22,18.415,18.415,0,0,1,3.459-.29,12.681,12.681,0,0,0,2.075-.17,23.018,23.018,0,0,1,4.189-.29c1.464.015,2.931-.005,4.381-.06.23.005.462.005.692,0,.209-.038.4-.081.576-.13.692-.18,1.384-.36,2.037-.55.518-.137,1.084-.261,1.691-.37a6.152,6.152,0,0,1,2.575,0,8.526,8.526,0,0,0,2.114.09c.692-.06,1.345-.15,2.075-.2s1.422.05,2.114.06.346-.06.461-.11c.253-.112.322-.245.192-.37a1.486,1.486,0,0,0-.384-.16c-1.191-.42-2.613-.77-3.843-1.15-.922-.13-1.268-.25-1.383-.4a.5.5,0,0,1,0-.76c.029-.061.151-.117.339-.155a2.973,2.973,0,0,1,.661-.045,3.351,3.351,0,0,1,1.191.19.888.888,0,0,1,.308.17.967.967,0,0,1,.461.56l1.191.22.577.11a10.718,10.718,0,0,0,2.114,0c1.076-.16,1.922-.39,2.921-.57a3.974,3.974,0,0,1,2.383.16c.73.29.846.3.269.51-.42.156-.66.34-.692.53a1.634,1.634,0,0,0,0,1c0,.16.307.24.922.23.216.01.437.01.653,0a7.878,7.878,0,0,0,1.691-.35,15.162,15.162,0,0,1,2.191-.49,4.2,4.2,0,0,1,1.883-.06l1.153.24,1.192-.41c1.076.19,2.075.18,2.306-.09a5.088,5.088,0,0,1,2.5-.91,8.906,8.906,0,0,1,2.075-.08,13.876,13.876,0,0,1,1.883.29,6.114,6.114,0,0,1,1.23.16,3.245,3.245,0,0,1,1.461.61,15.328,15.328,0,0,0,2.767.61,4.345,4.345,0,0,0,1.383,0,13.679,13.679,0,0,1,4.151,0,5.889,5.889,0,0,0,2.037,0,19.9,19.9,0,0,1,2.844-.16,15.785,15.785,0,0,1,2.114.13,24.987,24.987,0,0,0,2.575.35c1,.06,1.652.27,2.536.38a16.146,16.146,0,0,0,2.114.14h1.5a16.914,16.914,0,0,0,3.421-.29,13.119,13.119,0,0,1,2.729-.25c.973-.015,1.948-.015,2.921,0a10.241,10.241,0,0,1,1.96.23c.377.079.79.147,1.23.2a6.218,6.218,0,0,0,1.422,0c1.307-.18,2.229-.5,3.536-.69a3.234,3.234,0,0,1,1.307,0c.73.17,1.422.34,2.114.53q.786.206,1.653.39a7.7,7.7,0,0,0,2.075.08,20.107,20.107,0,0,1,3.536-.19,13.516,13.516,0,0,1,1.422.09c.615.09,1.23.2,1.883.28.92.089,1.819.192,2.69.31a18.964,18.964,0,0,0,3.5.25h11.03a16.641,16.641,0,0,0,2.767-.21,17.59,17.59,0,0,1,2.767-.23h12.683a11.258,11.258,0,0,0,2.037-.2,7.271,7.271,0,0,1,1.268-.18c.73,0,1.46-.07,2.191-.09a17.4,17.4,0,0,0,2.613-.32,7.817,7.817,0,0,1,3.267,0,2.421,2.421,0,0,1,1.5.38h0l1.115.23a9.983,9.983,0,0,0,2.037.17,18.32,18.32,0,0,0,2.806-.14l1.307-.17h0a3.488,3.488,0,0,1,1.076-.19c.448-.01.9-.01,1.345,0a4.809,4.809,0,0,1,1.729.24c.194.108.194.232,0,.34v.41a9.374,9.374,0,0,0,2.844.53,16.137,16.137,0,0,1,1.883.25,4.733,4.733,0,0,0,1.922-.1c.374-.079.721-.166,1.038-.26.922-.23.692-.72-.346-.79l-1.345-.14c-.693-.055-1.192-.213-1.268-.4a.835.835,0,0,1,0-1.12,1.633,1.633,0,0,1,.884-.28,19.5,19.5,0,0,1,2.075-.11,13.56,13.56,0,0,1,2.652.21c0-.17.231-.33.384-.49a.675.675,0,0,1,.269-.18,6.341,6.341,0,0,1,1.614-.38,6.543,6.543,0,0,1,1.384,0l1.384.13a6.211,6.211,0,0,0,1.42-.011,1.691,1.691,0,0,0,.886-.289,5.712,5.712,0,0,1,2.075-.78l.577-.12a7.789,7.789,0,0,1,1.307-.16l2.152-.1a2.924,2.924,0,0,0,1.576-.36,6.213,6.213,0,0,1,2.613-.6,8.215,8.215,0,0,0,1.268-.19c.73-.17,1.384-.37,2.075-.54a12.977,12.977,0,0,1,1.922-.28,9.984,9.984,0,0,0,1.345-.13c1.026-.174,2.138-.312,3.3-.41,1.238-.191,2.522-.361,3.843-.51a5.572,5.572,0,0,0,1.153-.24c.307-.09.692-.17,1.038-.26a19.324,19.324,0,0,1,3.151-.48c.845-.07,1.038-.13,1.383-.41a4.236,4.236,0,0,1,1.422-.66c1.013-.282,2.133-.537,3.344-.76.229-.01.463-.01.692,0,1.45-.065,2.932-.065,4.381,0a7.593,7.593,0,0,1,1.345.13,20.088,20.088,0,0,0,4.151.29l3.843-.05a2.6,2.6,0,0,1,.23-.91c0-.34.807-.51,2.344-.57h.692l2.767-.08a4.839,4.839,0,0,1,1.691-.33h2.191a8.6,8.6,0,0,0,1.345-.13c1.115-.27,2.69-.31,3.843-.54a21.945,21.945,0,0,1,4.074-.37,8.956,8.956,0,0,0,2-.22c.922-.2,1.845-.41,2.729-.64s2.037-.55,3.074-.82a10.119,10.119,0,0,1,1.922-.27c.724-.023,1.443-.056,2.152-.1.456-.035.788-.137.846-.26-.673-.342-.954-.728-.807-1.11.01-.13.141-.257.384-.37a7.22,7.22,0,0,0,1.653-.85,4.245,4.245,0,0,1,1.691-.32c.73,0,1.46-.07,2.191-.09a6.266,6.266,0,0,0,1.307-.15l1.653-.38a15.036,15.036,0,0,1,3.344-.35H772.4a9.956,9.956,0,0,0,2.037-.18l2.767-.63a9.943,9.943,0,0,1,2-.2h5.15a10.215,10.215,0,0,0,1.96-.22c1.274-.231,2.089-.6,2.229-1a1.729,1.729,0,0,1,.346-.37c-.491-.279-.586-.594-.269-.89a1.79,1.79,0,0,1,.845-.28h0V149a.423.423,0,0,1,.231.21,1.366,1.366,0,0,1,.576.2.163.163,0,0,1,0,.18v.73h.692a16.9,16.9,0,0,1,2.729.26,15.841,15.841,0,0,0,1.883.28,13.113,13.113,0,0,1,1.883.28l4.381,1a5.729,5.729,0,0,0,.654.1,6.541,6.541,0,0,0,1.383,0q.991-.12,1.922-.27a9.662,9.662,0,0,1,3.343.12l1.038.27c.971.291,2.052.556,3.228.79a9.211,9.211,0,0,0,1.307.15h1.46a15.517,15.517,0,0,1,2.69.25,12.012,12.012,0,0,0,2.037.2c1.729,0,3.421,0,5.112.05a9.435,9.435,0,0,1,2,.2q2.039.556,4.3,1.05a11.631,11.631,0,0,0,1.96.21c1.941.055,3.9.055,5.842,0a4.378,4.378,0,0,0,.692-.06c.922-.09,1.576-.29,2.575-.34.938-.069,1.851-.159,2.729-.27a4.935,4.935,0,0,1,1.384.06c.769.15,1.46.34,2.267.47.844.121,1.717.228,2.613.32a1.826,1.826,0,0,1,.538.13c.307.17.576.35.845.53a2.244,2.244,0,0,0,1.153.19,5.981,5.981,0,0,0,1.345-.1,7.513,7.513,0,0,0,.846-.31,5.041,5.041,0,0,1,2.421-.28,5.014,5.014,0,0,0,1.345-.07,18.056,18.056,0,0,1,2.767-.22h5.111a3.767,3.767,0,0,0,1.614-.33l.461-.56a1.5,1.5,0,0,1,.922-.24,3.8,3.8,0,0,1,1.268.14c.766.163,1.228.4,1.268.66v.19a3.38,3.38,0,0,0,1.076-.24,12.7,12.7,0,0,1,3.113-.79.23.23,0,0,1,0-.36,1.276,1.276,0,0,1,.769-.28c.394.06.663.163.73.28s.006.241-.192.35-.307.22-.5.32c-.352.145-.563.309-.615.48v.35q.6.107,1.153.23a14.157,14.157,0,0,0,2.46.4,5.414,5.414,0,0,1,2.075.51,1.852,1.852,0,0,0,1.576.15,4.49,4.49,0,0,0,1.768-.59,1.21,1.21,0,0,1,.23-.18,4.261,4.261,0,0,1,2.191-.43h1.46a5.449,5.449,0,0,1,1.806.28c1.939.118,3.946.142,5.919.07a4.566,4.566,0,0,1,1.691-.31,4.989,4.989,0,0,1,1.883.22,9.1,9.1,0,0,0,2.69,1.12,3.692,3.692,0,0,1,1.46.65,4.433,4.433,0,0,0,2.037.5,11.811,11.811,0,0,1,1.922.27c.67.187,1.418.355,2.229.5a9.55,9.55,0,0,0,2.767.06c.658-.087,1.287-.187,1.883-.3a26.011,26.011,0,0,0,3.305-.39,10.287,10.287,0,0,1,2.767,0l2.229.5c1.022.176,2.135.314,3.305.41q.3.055.576.12a13.538,13.538,0,0,0,3.382.27,14.569,14.569,0,0,0,2.075-.18l1.153-.23a8.714,8.714,0,0,1,2.114,0l1.23.2a8.105,8.105,0,0,0,3.344,0,12.857,12.857,0,0,1,2.652-.28h6.61a14.133,14.133,0,0,1,2.075.17l.576.12c.6.112,1.26.2,1.96.26a12.5,12.5,0,0,1,1.883.29c.73.17,1.461.34,2.229.5s2.306.18,3.305.4a14.607,14.607,0,0,0,2.69.27h.73a11.941,11.941,0,0,1,2,.2,19.921,19.921,0,0,0,3.382.35h.73l2.268-.08v-.38a.322.322,0,0,1,0-.19,3.062,3.062,0,0,1,1.422-.41c2.683-.073,5.388-.073,8.071,0a9.417,9.417,0,0,1,1.96.23,10.653,10.653,0,0,0,2,.22,25.323,25.323,0,0,1,3.459.28l1.614.39a13.03,13.03,0,0,0,2.537.37,10,10,0,0,1,1.883.27c.538.13,1.076.27,1.576.41a8.752,8.752,0,0,0,1.806.31q.7.056,1.384.13c.653.09,1.23.21,1.883.3.693.056,1.374.123,2.037.2a31.327,31.327,0,0,0,3.305.41,5.727,5.727,0,0,1,.653.1,23.788,23.788,0,0,0,3.037.49,8.975,8.975,0,0,1,1.307.17,18.779,18.779,0,0,0,3.459.26h9.57a10.513,10.513,0,0,1,1.422.08c1.035.17,2.145.308,3.305.41l.653.08.615.11c.692.17,1.46.34,2.114.53a7.58,7.58,0,0,0,1.922.25,29.232,29.232,0,0,1,4.8.41c1.174.093,2.288.232,3.305.41a12.428,12.428,0,0,0,2.037.18,23.168,23.168,0,0,1,2.844.18,9.811,9.811,0,0,0,2.767,0,17.468,17.468,0,0,1,2.114-.16c2.2-.04,4.41-.04,6.61,0a12.223,12.223,0,0,1,2.037.19,17.831,17.831,0,0,0,3.421.32h7.187a20.313,20.313,0,0,1,3.459.28,10.507,10.507,0,0,0,2.806.05c.229-.024.448-.054.653-.09a4.826,4.826,0,0,1,1.383,0c.649.086,1.332.153,2.037.2a16.374,16.374,0,0,0,4.189-.21q.87-.177,1.806-.33a3.975,3.975,0,0,1,1.845.05c.961.52,1.191.51,3.5.53h11.03a16.167,16.167,0,0,1,2.806.2,22.3,22.3,0,0,0,3.42.29,11.442,11.442,0,0,1,2.614.32c.538.13,1.114.25,1.614.39a9.758,9.758,0,0,0,1.883.28,25.938,25.938,0,0,1,2.613.34,13.908,13.908,0,0,0,2.114.15,26.615,26.615,0,0,0,2.844-.14c1.345-.13,1.922,0,2.191.28s.307.37.5.56a3.108,3.108,0,0,0,1.614.32h.73a6.314,6.314,0,0,0,2.959-.45,4.07,4.07,0,0,1,.653-.34,5.144,5.144,0,0,1,2.5,0,6.784,6.784,0,0,1,.653.34,3.419,3.419,0,0,0,1.422.41,27.133,27.133,0,0,1,3.267.41,9.089,9.089,0,0,0,1.422.09,17.712,17.712,0,0,0,4.112-.3,9.493,9.493,0,0,1,2.767,0l.653.1a15.33,15.33,0,0,0,2.767.19,13.891,13.891,0,0,0,2.767-.23,16.541,16.541,0,0,1,2-.23,9.037,9.037,0,0,0,2.421-.39l1.076-.26a3.156,3.156,0,0,1,.967-.1,2.113,2.113,0,0,1,.84.16c.269.1.461.22.769.32a3.985,3.985,0,0,0,1.153.22,19.81,19.81,0,0,0,3.613-.07,10.178,10.178,0,0,1,2.729-.12,6.048,6.048,0,0,0,2-.1c.692-.17,1.384-.36,2.152-.52a7.565,7.565,0,0,1,2.729,0l.615.1a3.857,3.857,0,0,0,.577.12,7.9,7.9,0,0,0,2.729,0,18.6,18.6,0,0,1,4.074-.36h3.651c.242.01.488.01.73,0a3.581,3.581,0,0,0,1.576-.35l.269-.18a4.256,4.256,0,0,1,1.42-.275,7.452,7.452,0,0,1,1.732.095c1,.19,1.922.4,2.921.59a4.283,4.283,0,0,0,.615.09c.486.01.974.01,1.46,0,.653-.09,1.268-.19,1.922-.27s1.883-.14,2.729-.28l.577-.12a16.764,16.764,0,0,1,2.075-.18h7.687a8.537,8.537,0,0,0,2-.23,11.664,11.664,0,0,1,2.652-.27h1.845a13.185,13.185,0,0,1,2.729.23,4.927,4.927,0,0,0,2-.05c.615-.11,1.537-.31,2.306-.47a7.719,7.719,0,0,1,2.69-.09,11.185,11.185,0,0,0,3.459,0c.449-.052.931-.083,1.422-.09s.974-.01,1.46,0h1.46a14.932,14.932,0,0,0,2.729-.25c.19-.039.4-.073.615-.1.683-.066,1.35-.143,2-.23a5.369,5.369,0,0,0,1.268-.46,4.04,4.04,0,0,1,1.845-.15,23.637,23.637,0,0,0,2.844.19,27.669,27.669,0,0,1,2.806.21c1.153.13,1.422.08,2-.31a2.175,2.175,0,0,1,.307-.18,6.578,6.578,0,0,1,1.96-.18l1.345.13a8.252,8.252,0,0,0,1.422.08,6.028,6.028,0,0,0,2.075-.5,1.212,1.212,0,0,0,.231-.18.581.581,0,0,1,.269-.57,3.226,3.226,0,0,1,2-.48l3.651-.07c.486-.029.962-.07,1.422-.12,1.307-.31,3.19-.3,4.65-.55a4.215,4.215,0,0,1,.615-.07,5.4,5.4,0,0,1,.692.07,27.932,27.932,0,0,0,3.536.24,14.156,14.156,0,0,1,2.729.25,8.845,8.845,0,0,0,2.037.12,2.773,2.773,0,0,0,1.537-.36,4.9,4.9,0,0,1,.576-.75,1.966,1.966,0,0,1,1-.25,19.253,19.253,0,0,1,3.574.06l1.345.16c.5.06.577,0,1.46-.35.5-.21.5-.21,1.729-.15a3.542,3.542,0,0,0,1.768-.24c0-.19.231-.38.385-.57.094-.16.486-.3,1.047-.368a6.831,6.831,0,0,1,1.758.018c.226.03.444.063.653.1a3.528,3.528,0,0,0,1.806-.14l.769-.33a5.645,5.645,0,0,1,1.922-.2,11.9,11.9,0,0,1,1.345.14,2.42,2.42,0,0,0,.664.057,1.538,1.538,0,0,0,.566-.107c.41-.16.295-.375-.269-.5a12.063,12.063,0,0,1-1.192-.22c-.307-.1,0-.22.384-.29a26.533,26.533,0,0,1,2.882-.12,15.482,15.482,0,0,0,2.767-.23,5.105,5.105,0,0,1,1.96.05c.751.167,1.562.314,2.421.44a4.688,4.688,0,0,0,1.345,0q1.13-.244,2.152-.52a10.378,10.378,0,0,1,2.037-.2h5.15a4,4,0,0,0,2.191-.42,4.708,4.708,0,0,1,2.075-.77,5.768,5.768,0,0,1,1.384,0,10.614,10.614,0,0,1,1.307.17,9.63,9.63,0,0,0,2.152,0c.4-.073.825-.136,1.268-.19.73-.06,1.422.06,2.114.06.242.01.488.01.73,0a6.262,6.262,0,0,0,2.459-.68c0-.06,0-.11.269-.18a3.093,3.093,0,0,1,1.653-.31c1.191,0,2.459,0,3.651-.08a9.26,9.26,0,0,0,2-.21,7.789,7.789,0,0,1,1.191-.21c1.156-.108,2.286-.235,3.382-.38a5.231,5.231,0,0,1,.692,0,11.563,11.563,0,0,0,2.729,0,10.181,10.181,0,0,1,3.843.16q3.984.007,7.956-.09a4.062,4.062,0,0,0,1.691-.32l.538-.35c-.17-.184-.1-.377.192-.55a1.527,1.527,0,0,0,.845-.73c0-.13.192-.25.307-.37a4.638,4.638,0,0,1,2.344-.29l.653.09a20.67,20.67,0,0,0,3.421.3,15.036,15.036,0,0,1,2.729.23,15.522,15.522,0,0,0,2.767.22H1394c.476-.023.94-.06,1.384-.11a22.23,22.23,0,0,1,4.112-.35,10.315,10.315,0,0,0,2-.2c.884-.22,1.806-.44,2.729-.64a9.749,9.749,0,0,1,1.307-.17,17.633,17.633,0,0,0,1.96-.24c.189-.042.4-.079.615-.11a8.018,8.018,0,0,1,1.737-.063,4.157,4.157,0,0,1,1.375.283,5.316,5.316,0,0,1,.576.35,4.545,4.545,0,0,0,1.768.28c1.457.035,2.924.035,4.381,0a18.76,18.76,0,0,0,2.806-.2,7.637,7.637,0,0,1,2.075,0l1.307.16a19.492,19.492,0,0,1,2.613.34c.713.173,1.471.334,2.267.48a11.261,11.261,0,0,0,2.037.18h2.921a11.261,11.261,0,0,1,2.037.18,22.279,22.279,0,0,0,2.575.37c.668.074,1.3.168,1.883.28a12.681,12.681,0,0,0,2.075.17h5.111a3.076,3.076,0,0,0,2-.48.581.581,0,0,1,.269-.57c.269-.19.307-.24,1.23-.45l.423-.69c-.009-.11.112-.218.346-.31a9.779,9.779,0,0,1,2.46-.49l1.191-.22a3.464,3.464,0,0,1,.972-.061,1.474,1.474,0,0,1,.719.181,2.321,2.321,0,0,0,.538.34,16.422,16.422,0,0,0,3.344,1,3.008,3.008,0,0,1,.884.28l.615-.1a14.724,14.724,0,0,1,2.536-.38,22.91,22.91,0,0,0,2.5-.39,7.844,7.844,0,0,1,1.345-.13l3.843-.06c.481-.017.949-.054,1.384-.11q1.229-.2,2.537-.37c.922-.09.961-.15.615-.44a1.475,1.475,0,0,1-.5-.56c.116-.191.614-.351,1.307-.42a18.074,18.074,0,0,1,4.8.27,8.757,8.757,0,0,0,1.384.12c1.23,0,2.46,0,3.843.08a10.561,10.561,0,0,1,2,.23,12.6,12.6,0,0,0,2.69.27q4.4.06,8.8,0a10.7,10.7,0,0,0,1.384-.12l.576-.12a16.453,16.453,0,0,1,2.729-.28,17.443,17.443,0,0,0,3.382-.31,11.081,11.081,0,0,1,1.307-.16,14.281,14.281,0,0,0,3.113-.48c1.038-.27,2.075-.55,3.151-.81a9.267,9.267,0,0,1,1.23-.2,25.5,25.5,0,0,0,2.652-.32,13.463,13.463,0,0,1,2.037-.18l2.191-.08a6.876,6.876,0,0,0,1.307-.17,14.673,14.673,0,0,1,2.729-.25h8.071a13.857,13.857,0,0,0,2.69-.27,11.5,11.5,0,0,1,2-.22h16.334a16.405,16.405,0,0,0,2.805-.21,17.191,17.191,0,0,1,2.037-.21c.486-.01.974-.01,1.46,0a12.224,12.224,0,0,0,2.037-.19,22.636,22.636,0,0,1,3.459-.27h11.8a10.853,10.853,0,0,1,2.575.31c.346.09.769.16,1.153.25a14.341,14.341,0,0,0,2.5.37,9.621,9.621,0,0,1,1.345.16s.423.07.577.11a9.68,9.68,0,0,0,1.96.24h4.42a18.5,18.5,0,0,1,3.42.29,12.49,12.49,0,0,0,2.075.18h13.835a15.037,15.037,0,0,0,2.729-.23,19.951,19.951,0,0,1,4.227-.22l.73.05.653.08a5.576,5.576,0,0,0,1.4-.021c.427-.065.706-.18.751-.309.012-.384.655-.748,1.768-1a6.75,6.75,0,0,1,4.189.74,4.326,4.326,0,0,0,2.191.44,17.352,17.352,0,0,1,3.843.43c.538.13,1.23.22,1.806.34a2.881,2.881,0,0,0,1.307,0,11.121,11.121,0,0,1,3.459-.08c1.55.317,2.979.672,4.266,1.06a11.268,11.268,0,0,0,2.613.29h2.959a10.815,10.815,0,0,1,2,.2c.577.12,1.191.23,1.806.34,1.307.22,1.46.22,2.191-.13a2.2,2.2,0,0,1,.884-.29,17.117,17.117,0,0,1,4.228,0c1.029.168,2.141.3,3.305.39.468.041.919.095,1.345.16a7.023,7.023,0,0,0,2.037,0,21.41,21.41,0,0,1,2.844-.17,20.638,20.638,0,0,1,2.114.13l.615.11a14.987,14.987,0,0,0,2.729.24,17.335,17.335,0,0,1,3.344.34,10.88,10.88,0,0,0,2.037.2c.728.01,1.449.04,2.152.09,1.192.1,2.037.37,3.305.41a8.933,8.933,0,0,1,1.345.16,14.371,14.371,0,0,0,2.652.29c.486-.01.974-.01,1.46,0a9.36,9.36,0,0,1,1.922.24c.692.19,1.46.35,2.152.53a9.026,9.026,0,0,0,1.268.19,19.466,19.466,0,0,1,2.652.32,7.762,7.762,0,0,0,1.307.17,14.429,14.429,0,0,1,2.536.36c.538.13,1.076.26,1.576.4a11.093,11.093,0,0,0,2.613.3h.73a12.425,12.425,0,0,1,2.69.28l2.229.5a7.511,7.511,0,0,0,1.345.14l3.843.07a9.533,9.533,0,0,1,1.96.23c1.307.3,2.537.61,3.843.91.346.09.653.2,1,.29a3.258,3.258,0,0,1,1.076.5c.461.31,1.038.32,2.075,0a3.635,3.635,0,0,1,2.383-.08l1.614.4a8.581,8.581,0,0,0,2,.19c.727.025,1.464.025,2.191,0,.672-.084,1.114-.256,1.153-.45-.073-.19-.353-.37-.807-.52-1.038-.36-2.575-.6-3.613-1a.677.677,0,0,1-.269-.17.172.172,0,0,1,0-.19,5.258,5.258,0,0,1,3.42-.32c.307.1.73.17,1.038.27a9.869,9.869,0,0,0,2.383.41,11.49,11.49,0,0,1,1.96.25c.73.17,1.46.35,2.191.51a6.646,6.646,0,0,0,1.345.14c.485.015.975.015,1.46,0a5.629,5.629,0,0,0,2.69-.47h1.46a10.882,10.882,0,0,1,2.037.2l2.767.63a5.1,5.1,0,0,0,.615.09,16.464,16.464,0,0,0,3.574,0c.457-.051.884-.118,1.268-.2a11.94,11.94,0,0,1,2-.2h5.88a18.451,18.451,0,0,1,3.459.28,16.028,16.028,0,0,0,2.729.24h2.191a14.032,14.032,0,0,1,2.729.25,17.257,17.257,0,0,0,2.767.22h2.229a16.026,16.026,0,0,1,2.729.24,12.012,12.012,0,0,0,2.037.2h2.921a5.024,5.024,0,0,1,2.306.38,4.893,4.893,0,0,0,1.922.81l2.767.62a7.082,7.082,0,0,0,1.384.14l2.921.05a17.5,17.5,0,0,1,2.729.25,11.715,11.715,0,0,0,2.69.27h3.843a18.5,18.5,0,0,1,3.459.26,17.49,17.49,0,0,0,2.806.21c.242-.01.488-.01.73,0a4.1,4.1,0,0,1,1.691.31,6.8,6.8,0,0,0,2.421.95c.538.13,1.115.25,1.691.37a3.205,3.205,0,0,0,.95.084,1.832,1.832,0,0,0,.78-.164,4.8,4.8,0,0,1,.769-.32,6.723,6.723,0,0,1,3.151.1,3.757,3.757,0,0,0,2.383.65,7.794,7.794,0,0,1,1.268.18,23.079,23.079,0,0,0,2.613.36c.961.07,1.614.28,2.5.38s1.384.12,2.075.2,1.268.18,1.922.27a9.09,9.09,0,0,0,1.422.09,19.69,19.69,0,0,1,3.459.27,14.989,14.989,0,0,0,2.729.24h4.42a12.013,12.013,0,0,1,2.037.2,12.915,12.915,0,0,0,2.652.29h2.921a12.487,12.487,0,0,1,2.075.18,20.944,20.944,0,0,0,3.459.26h5.919a11.313,11.313,0,0,1,2.037.17,19.649,19.649,0,0,0,3.459.28c1.471.03,2.949.03,4.42,0,.477-.021.942-.058,1.384-.11s.859-.121,1.268-.19l4.074-.41c.242-.01.488-.01.73,0a33.591,33.591,0,0,0,3.536.22c.742-.015,1.487-.015,2.229,0a11.313,11.313,0,0,1,2.037.17,17.619,17.619,0,0,0,3.459.29h1.153a15.76,15.76,0,0,1,3.344.33,9.869,9.869,0,0,0,2.037.2c1.2-.03,2.418-.019,3.613.03v-47Zm295.506,72.81a4.209,4.209,0,0,1-1.51-.071c-.385-.109-.444-.272-.144-.4a3.6,3.6,0,0,1,1.433-.143c.547.041.92.173.913.321-.013.125-.3.237-.73.29Zm7.917-2c-.692.08-1.23-.06-1.153-.31s.692-.35,1.307-.26c.424.061.654.185.577.31-.025.124-.325.234-.769.28Zm341.74-22.6-.423.11a1.347,1.347,0,0,1-.5-.1c-.1-.053-.1-.114,0-.167l.461-.1a1.208,1.208,0,0,1,.536.107c.089.059.045.125-.113.173Zm6.3-1.71a1.419,1.419,0,0,1-.845.25,5.057,5.057,0,0,1-1.845-.25c-.553-.128-.71-.337-.384-.51a2.206,2.206,0,0,1,.577-.11c.229-.01.463-.01.692,0a4.86,4.86,0,0,1,1.527.2c.353.128.443.292.241.44Zm500.427,1.71c0,.05-.307.07-.5.1a1.012,1.012,0,0,1-.432-.118c-.073-.053-.056-.112.047-.162l.5-.09a.986.986,0,0,1,.479.12c.07.059.02.123-.133.17Zm139.432-7.37a6.068,6.068,0,0,1-1.845-.08.1.1,0,0,1,0-.14c0-.14.961-.22,1.729-.15.421.02.718.119.692.23A1.673,1.673,0,0,1,1291.775,163.3Zm463.455-5h0a2.052,2.052,0,0,1-1.038,0c-.461-.1-.461-.2,0-.28a2.529,2.529,0,0,1,.615,0c.377.045.547.161.384.26h0Z" transform="translate(-0.45 -121.463)" fill="#c6c6c6"/>
  <path id="Path_466" data-name="Path 466" d="M327.078,29.27h0Z" transform="translate(335.955 19.99)" fill="#fff"/>
  <path id="Path_467" data-name="Path 467" d="M327.477,151.75h0v.06S327.439,151.76,327.477,151.75Z" transform="translate(335.634 -102.56)" fill="#fff"/>
  <path id="Path_468" data-name="Path 468" d="M.42,122.793v72.45c.461.041.938.068,1.422.08H8.491a9.868,9.868,0,0,1,2.037.16,26,26,0,0,0,3.267.43c.443.048.857.112,1.23.19a14.514,14.514,0,0,0,2.767.24l1.422.06a3.468,3.468,0,0,1,1.153.22,2.917,2.917,0,0,1,.346.17,4.757,4.757,0,0,0,2.69.53h8.109a15.959,15.959,0,0,1,2.729.25,5.866,5.866,0,0,0,.576.11c1.391.124,2.741.278,4.035.46a9.836,9.836,0,0,0,1.384.1,23.294,23.294,0,0,1,4.112.37,9.278,9.278,0,0,0,1.383.12c1.209.05,2.442.05,3.651,0a19.54,19.54,0,0,0,2.652-.31,9.174,9.174,0,0,1,2.767,0l.577.11a9.679,9.679,0,0,0,2.69.26,12.327,12.327,0,0,0,1.345-.16,3.588,3.588,0,0,1,.653,0,16.651,16.651,0,0,0,3.536-.1,9.2,9.2,0,0,1,2.767.07,5.165,5.165,0,0,1,.577.11,9.6,9.6,0,0,0,3.382,0l2.268-.5a9.994,9.994,0,0,1,2-.19h5.15a13.879,13.879,0,0,0,2.037-.19c.406-.074.845-.134,1.306-.18a18.61,18.61,0,0,1,3.574,0c.461.05.846.14,1.268.19q.679.074,1.384.13a6,6,0,0,0,1.883-.2c.231-.12.385-.24.577-.36a3.75,3.75,0,0,1,1.576-.34,6.956,6.956,0,0,1,1.384.08,19.753,19.753,0,0,0,4.035.41c.23,0,.461,0,.692,0a8.374,8.374,0,0,1,1.345.15,18.714,18.714,0,0,0,3.421.3h2.229a12.875,12.875,0,0,1,2.076.16,21.309,21.309,0,0,0,3.459.29,16.343,16.343,0,0,1,2.728.25,12.232,12.232,0,0,0,2.729.24l2.921.07a10.653,10.653,0,0,1,2,.22,11.174,11.174,0,0,0,1.96.23c1.713.04,3.437.04,5.15,0a9.918,9.918,0,0,0,2.037-.19c1.358-.359,2.809-.693,4.343-1a4.985,4.985,0,0,1,1.383,0,24.675,24.675,0,0,0,4.266.2,8.371,8.371,0,0,0,1.384-.12,18.379,18.379,0,0,1,4.112-.28,10.415,10.415,0,0,1,1.422.1c1.032.169,2.143.3,3.305.4a18.162,18.162,0,0,1,1.883.28,10.193,10.193,0,0,0,1.383.13l3.651.08a10.29,10.29,0,0,1,2,.22,9.848,9.848,0,0,0,2,.23c1.191,0,2.421.05,3.651.06a9.757,9.757,0,0,1,1.384.11c.406.071.829.134,1.268.19a19.581,19.581,0,0,0,4.266,0,4.762,4.762,0,0,0,.653-.09,5.277,5.277,0,0,0,2.075-.77,1.635,1.635,0,0,1,.269-.18,4.7,4.7,0,0,1,1.729-.3h7.341a9.01,9.01,0,0,0,2.037-.19c.346-.1.769-.16,1.115-.25a9.628,9.628,0,0,1,3.344-.22,5.458,5.458,0,0,0,1.383,0,6.435,6.435,0,0,1,1.384-.06,14.281,14.281,0,0,0,2.844,0c.438-.061.9-.108,1.384-.14,1.45-.065,2.932-.065,4.381,0a6.88,6.88,0,0,1,1.307.16l2.882.6a3.84,3.84,0,0,0,.653.07,23,23,0,0,0,3.613,0l.692-.07a5.94,5.94,0,0,1,1.96,0,21.364,21.364,0,0,0,2.844.18,17.232,17.232,0,0,0,3.421-.27,19.6,19.6,0,0,1,4.958,0,13.6,13.6,0,0,0,2.652.28h1.46a9.25,9.25,0,0,1,1.96.22,15.072,15.072,0,0,0,2.191.51,5.3,5.3,0,0,0,1.384,0,5.82,5.82,0,0,0,.653-.09l2.191-.51a8.421,8.421,0,0,1,2.075-.06,20.315,20.315,0,0,0,4.727.41h1.615a16.6,16.6,0,0,0,2.729-.25,16.362,16.362,0,0,1,1.96-.26,9.042,9.042,0,0,0,1.307-.16,7.222,7.222,0,0,0,2.767-.86,3.174,3.174,0,0,1,1.806-.12c.21.034.428.064.653.09a8.373,8.373,0,0,0,2.691-.14c1.5-.34,2.882-.7,4.343-1a10.2,10.2,0,0,1,2.767-.09,1.553,1.553,0,0,1,.654.09,14.5,14.5,0,0,0,1.96.26c.468.028.92.072,1.345.13l1.921-.01c.242.01.488.01.73,0a18.567,18.567,0,0,0,3.536-.16,20.4,20.4,0,0,1,3.459-.26h11.76a11.49,11.49,0,0,0,2.075-.17,16.372,16.372,0,0,1,2.69-.28c.492-.01.98-.03,1.46-.06.982-.048,1.72-.261,1.807-.52v-.38c.045-.259.522-.5,1.307-.66a4.463,4.463,0,0,1,.5-.14,10.29,10.29,0,0,1,2-.22,6.707,6.707,0,0,1,1.345.13,15.708,15.708,0,0,0,3.344.34,15.727,15.727,0,0,1,3.382.32,9.913,9.913,0,0,0,1.307.15,11.941,11.941,0,0,1,1.96.25c.538.13,1.115.25,1.691.37l.615.11a4.043,4.043,0,0,0,1.345,0q1.585-.239,3.267-.43c1.023-.167,2.12-.3,3.267-.4a1.165,1.165,0,0,0,.523-.126c.084-.062.047-.131-.1-.184-.516-.218-.72-.477-.576-.73a1.834,1.834,0,0,1,.878-.281,6.481,6.481,0,0,1,1.389-.029c.862.137,1.761.257,2.69.36a31.184,31.184,0,0,1,3.19.46,9.361,9.361,0,0,0,1.383.11,16.4,16.4,0,0,0,3.5-.2,21.556,21.556,0,0,1,2.537-.37,10.726,10.726,0,0,0,1.268-.19,29.112,29.112,0,0,0,3.19-.79,1.2,1.2,0,0,0,.577-.34.631.631,0,0,0,.192-.38c.023-.256.345-.5.922-.71.468-.149.762-.329.846-.52a.953.953,0,0,0,.192-.38c.107-.257.571-.5,1.307-.67q.793-.2,1.5-.42a1.633,1.633,0,0,0,.922-.51v-.76c.022-.322.517-.63,1.384-.86a11.783,11.783,0,0,1,3.19-.4,16.506,16.506,0,0,1,2.844.17c.231,0,.423.09.615.09a8.09,8.09,0,0,0,1.422-.07c.621-.105,1.212-.222,1.768-.35a11.242,11.242,0,0,1,1.845-.29,17.464,17.464,0,0,0,2-.23,18.088,18.088,0,0,1,2.69-.27c.73,0,1.46-.06,2.191-.09a9.028,9.028,0,0,0,1.691-.36l1.768-.34a3.059,3.059,0,0,1,1.307,0l1.729.36a6.949,6.949,0,0,0,2.652,0c.576-.13,1.153-.24,1.691-.38a10.208,10.208,0,0,1,1.96-.22h3.69a4.556,4.556,0,0,0,1.268-.17c.41-.16.483-.363.192-.54l-.346-.17c0-.06-.269-.11-.384-.16-.746-.271-.6-.644.346-.87a5.372,5.372,0,0,1,3.075-.13,4.218,4.218,0,0,1,1.729.59l.307.18a6.468,6.468,0,0,0,2.575.15,37.471,37.471,0,0,0,3.843-.88,2.412,2.412,0,0,0,.961-.51,4.015,4.015,0,0,1,2.114-.44l2.191-.09a7.789,7.789,0,0,0,1.307-.16,16.139,16.139,0,0,1,3.5-.21,13.6,13.6,0,0,1,2.075.17,10.742,10.742,0,0,0,1.268.19,9.8,9.8,0,0,0,2.114-.08c1-.18,1.922-.39,2.882-.59a9.053,9.053,0,0,1,1.268-.18,12.761,12.761,0,0,0,2.959-.55,3.985,3.985,0,0,0,1.191-.47,6.017,6.017,0,0,1,2.076-.77,9.6,9.6,0,0,1,1.922-.26h1.5a12.627,12.627,0,0,0,2.575-.32c.346-.09.769-.17,1.115-.25a5.835,5.835,0,0,1,1.96-.16c1.691,0,2.114,0,2.383-.48v-.19c.115-.254.58-.488,1.307-.66a9.78,9.78,0,0,1,2.5-.36c.734,0,1.46-.037,2.152-.1a1.748,1.748,0,0,0,.653-.07,2.3,2.3,0,0,0,.692-.33.578.578,0,0,0,.192-.38v-.57c.08-.261.847-.473,1.845-.51,2.931-.045,5.87-.045,8.8,0a20.251,20.251,0,0,1,2.806.2,7.685,7.685,0,0,0,2.037-.12q2.019-.432,3.843-.92,1.04-.271,2.191-.51a4.764,4.764,0,0,1,.653-.09c.955-.062,1.938-.089,2.921-.08a19.591,19.591,0,0,0,4.074-.33,11.331,11.331,0,0,1,1.383-.13c.481-.027.969-.044,1.46-.05h1.461a16.592,16.592,0,0,0,2.767-.22,18.235,18.235,0,0,1,3.421-.29,12.68,12.68,0,0,0,2.075-.17,24.259,24.259,0,0,1,4.189-.29c1.477.02,2.958,0,4.419-.06.24-.006.475-.023.692-.05a3.568,3.568,0,0,0,.538-.13c.692-.18,1.422-.35,2.075-.54.5-.137,1.058-.261,1.653-.37a6.467,6.467,0,0,1,2.613,0,8.143,8.143,0,0,0,2.114.08c.692-.05,1.345-.14,2.037-.19a14.209,14.209,0,0,1,2.152.06c.73.06.346-.06.461-.11.192-.115.192-.245,0-.36a.811.811,0,0,0-.346-.17c-1.191-.41-2.652-.76-3.843-1.14-.884-.13-1.268-.24-1.384-.4a.524.524,0,0,1,0-.75,1.589,1.589,0,0,1,1.037-.2,3.71,3.71,0,0,1,1.192.18,1.642,1.642,0,0,1,.269.18,1.247,1.247,0,0,1,.5.55l1.191.22.576.11a10.719,10.719,0,0,0,2.114,0q1.522-.263,2.921-.57a4.336,4.336,0,0,1,2.383.16c.768.28.807.3.269.51-.42.156-.66.34-.692.53a1.6,1.6,0,0,0,0,1c0,.16.269.24.884.23.229.01.463.01.692,0a7.879,7.879,0,0,0,1.691-.35,18.442,18.442,0,0,1,2.19-.49,4.334,4.334,0,0,1,1.883-.05l1.115.24c.189.042.4.079.615.11a3.513,3.513,0,0,0,2.306-.09,5.058,5.058,0,0,1,2.46-.9,9.651,9.651,0,0,1,2.114-.08,14.03,14.03,0,0,1,1.845.28,6.864,6.864,0,0,1,1.23.17,3.071,3.071,0,0,1,1.46.6,14.024,14.024,0,0,0,2.806.61,4.344,4.344,0,0,0,1.383,0,13.7,13.7,0,0,1,4.112,0,6.026,6.026,0,0,0,2.075,0,19.594,19.594,0,0,1,2.806-.16,15.1,15.1,0,0,1,2.114.13,25.83,25.83,0,0,0,2.613.35,16.88,16.88,0,0,1,2.537.38,17.1,17.1,0,0,0,2.114.14h1.46a16.806,16.806,0,0,0,3.42-.28,13.385,13.385,0,0,1,2.729-.25c.985-.015,1.974-.015,2.959,0a8.826,8.826,0,0,1,1.96.23,10.777,10.777,0,0,0,1.23.2,6.217,6.217,0,0,0,1.422,0c1.307-.18,2.229-.5,3.5-.69a3.233,3.233,0,0,1,1.307,0c.73.17,1.46.34,2.152.53s1.076.25,1.614.38a7.54,7.54,0,0,0,2.075.08,21.378,21.378,0,0,1,3.536-.18,12.475,12.475,0,0,1,1.422.08l1.922.29c.921.08,1.809.184,2.652.31a20.223,20.223,0,0,0,3.5.24h11.607a17.042,17.042,0,0,0,2.767-.21,18.12,18.12,0,0,1,2.767-.23h12.683a9.94,9.94,0,0,0,2-.2,8.306,8.306,0,0,1,1.307-.17l2.152-.09a16.116,16.116,0,0,0,2.652-.33,8.162,8.162,0,0,1,3.267,0,2.237,2.237,0,0,1,1.461.37h0l1.153.23a9.414,9.414,0,0,0,2,.17,17.873,17.873,0,0,0,2.806-.13c.42-.065.856-.121,1.307-.17h0a3.2,3.2,0,0,1,1.115-.19H651.5a4.868,4.868,0,0,1,1.691.24c.212.107.212.233,0,.34v.41a9.176,9.176,0,0,0,2.806.53,14.015,14.015,0,0,1,1.922.25,4.319,4.319,0,0,0,1.883-.11c.373-.075.72-.159,1.038-.25.961-.23.692-.71-.307-.79s-.884-.09-1.345-.13c-.7-.059-1.2-.22-1.268-.41a.873.873,0,0,1,0-1.11,1.633,1.633,0,0,1,.884-.28,17.858,17.858,0,0,1,2.114-.1,12.731,12.731,0,0,1,2.613.2c0-.16.231-.32.384-.49a.627.627,0,0,1,.307-.17,5.769,5.769,0,0,1,1.576-.38,7.6,7.6,0,0,1,1.422,0l1.384.14a6.211,6.211,0,0,0,1.42-.011,1.691,1.691,0,0,0,.886-.289,5.288,5.288,0,0,1,2.037-.77l.576-.12a8.363,8.363,0,0,1,1.307-.16l2.191-.1a3,3,0,0,0,1.537-.36,6.313,6.313,0,0,1,2.652-.6,6.671,6.671,0,0,0,1.23-.19c.73-.16,1.383-.36,2.114-.53a12.973,12.973,0,0,1,1.922-.28,10.6,10.6,0,0,0,1.345-.13c1.021-.17,2.118-.308,3.267-.41q1.869-.281,3.843-.51a5.663,5.663,0,0,0,1.153-.23l1.076-.26a17.767,17.767,0,0,1,3.113-.48c.846-.07,1.038-.13,1.384-.41a4.535,4.535,0,0,1,1.46-.65c.99-.281,2.1-.533,3.305-.75a4.9,4.9,0,0,1,.692-.06c1.451-.06,2.93-.06,4.381,0a8.036,8.036,0,0,1,1.384.13,20.087,20.087,0,0,0,4.151.29l3.651-.05a2.615,2.615,0,0,1,.269-.9c.061-.32,1.076-.57,2.306-.57h.692l2.767-.08a5.165,5.165,0,0,1,1.691-.32l2.191-.06a7.213,7.213,0,0,0,1.345-.13c1.115-.26,2.69-.3,3.843-.53a21.945,21.945,0,0,1,4.074-.37,8.411,8.411,0,0,0,1.96-.22q1.422-.3,2.767-.63l3.075-.82a8.619,8.619,0,0,1,1.922-.26c.692,0,1.422-.06,2.152-.11.454-.027.784-.129.807-.25-.631-.346-.909-.728-.807-1.11.017-.128.163-.252.423-.36a7.36,7.36,0,0,0,1.614-.85,4.6,4.6,0,0,1,1.729-.32c.692,0,1.422-.07,2.152-.09a6.264,6.264,0,0,0,1.307-.15c.538-.13,1.153-.25,1.691-.37a14.311,14.311,0,0,1,3.305-.36h8.071a9.183,9.183,0,0,0,2.037-.17l2.767-.63a10.881,10.881,0,0,1,2.037-.2h2.921q1.095.015,2.191,0a11.494,11.494,0,0,0,2-.22c1.258-.235,2.069-.6,2.229-1a1.735,1.735,0,0,1,.346-.37c-.509-.274-.6-.588-.269-.88a1.583,1.583,0,0,1,.807-.28h0a.289.289,0,0,1,0-.18c.118.066.183.137.192.21a1.831,1.831,0,0,1,.615.19.3.3,0,0,1,0,.18c0,.24,0,.49,0,.73h.73a16.823,16.823,0,0,1,2.69.26,15.833,15.833,0,0,0,1.883.28,16.637,16.637,0,0,1,1.921.27c1.422.35,2.883.68,4.382,1a6.116,6.116,0,0,0,.615.09,6.835,6.835,0,0,0,1.422,0c.648-.08,1.277-.17,1.883-.27a10.126,10.126,0,0,1,3.382.12l1.038.27c.958.288,2.027.549,3.19.78a7.418,7.418,0,0,0,1.345.15H815.8a17.751,17.751,0,0,1,2.729.25,12.012,12.012,0,0,0,2.037.2c1.691,0,3.42,0,5.111.05a9.687,9.687,0,0,1,2,.2c1.422.34,2.69.73,4.266,1a11.72,11.72,0,0,0,2,.21c1.943.05,3.9.05,5.842,0,.242-.015.475-.038.692-.07.884-.09,1.576-.29,2.575-.34.935-.067,1.848-.154,2.729-.26a4.7,4.7,0,0,1,1.345.05q1.1.256,2.306.48c.841.119,1.715.223,2.613.31a2.739,2.739,0,0,1,.538.13c.307.17.576.35.845.52a2.135,2.135,0,0,0,1.153.19,5.408,5.408,0,0,0,1.307-.1,4.579,4.579,0,0,0,.845-.31,5.141,5.141,0,0,1,2.422-.27,5.309,5.309,0,0,0,1.383-.07,17.209,17.209,0,0,1,2.729-.22h5.111a3.6,3.6,0,0,0,1.614-.33c.192-.18.307-.37.5-.55.073-.126.442-.226.922-.25a4.43,4.43,0,0,1,1.268.14c.748.165,1.194.4,1.23.66a.338.338,0,0,1,0,.19,4.034,4.034,0,0,0,1.076-.24,13.19,13.19,0,0,1,3.113-.79.22.22,0,0,1,0-.35,1.428,1.428,0,0,1,.769-.28,1.276,1.276,0,0,1,.769.28c.077.12,0,.243-.23.35a2.346,2.346,0,0,1-.5.31c-.359.147-.57.316-.615.49v.34c.407.069.793.145,1.153.23a15.092,15.092,0,0,0,2.5.4,5.228,5.228,0,0,1,2.037.51,2.017,2.017,0,0,0,1.614.15,4.06,4.06,0,0,0,1.729-.6l.269-.18a4.189,4.189,0,0,1,2.191-.42c.486-.01.974-.01,1.461,0a5.27,5.27,0,0,1,1.768.28c1.939.118,3.946.142,5.918.07a4.659,4.659,0,0,1,1.691-.31,4.861,4.861,0,0,1,1.883.22,9.7,9.7,0,0,0,2.729,1.11,3.972,3.972,0,0,1,1.46.65,4.3,4.3,0,0,0,2.037.5,13.166,13.166,0,0,1,1.921.26c.665.185,1.4.353,2.191.5a9.691,9.691,0,0,0,2.806.06c.645-.087,1.262-.187,1.845-.3a25.992,25.992,0,0,0,3.343-.38,10.211,10.211,0,0,1,2.767.05c.73.17,1.5.32,2.191.5,1.04.166,2.149.3,3.305.4a3.242,3.242,0,0,1,.577.12,13.825,13.825,0,0,0,3.42.26,12.63,12.63,0,0,0,2.037-.17c.423-.07.769-.16,1.191-.23a7.951,7.951,0,0,1,2.075,0l1.268.2a8.278,8.278,0,0,0,3.344,0,12.669,12.669,0,0,1,2.652-.27h6.61a15.054,15.054,0,0,1,2.075.17,3.682,3.682,0,0,1,.576.12,18.818,18.818,0,0,0,1.96.25,13.975,13.975,0,0,1,1.845.29c.73.17,1.46.34,2.267.5s2.306.18,3.267.4a15.355,15.355,0,0,0,2.69.27h.73a10.123,10.123,0,0,1,2.037.2,19.571,19.571,0,0,0,3.344.34h.73l2.306-.07v-.38a.355.355,0,0,1,0-.2,3.348,3.348,0,0,1,1.422-.4c2.683-.072,5.388-.072,8.071,0a10.206,10.206,0,0,1,2,.23,10.773,10.773,0,0,0,2,.22l1.46.06a11.719,11.719,0,0,1,2,.21c.5.14,1.076.26,1.614.39a11.88,11.88,0,0,0,2.5.37,10.118,10.118,0,0,1,1.922.27c.538.13,1.076.27,1.576.41a10.036,10.036,0,0,0,1.806.31c.475.033.938.076,1.384.13.653.08,1.23.2,1.883.29s1.422.09,2.037.2a30.086,30.086,0,0,0,3.305.41c.217.024.423.054.615.09a22.743,22.743,0,0,0,3.19.46c.464.04.9.1,1.307.17a17.691,17.691,0,0,0,3.459.26h9.57a10.953,10.953,0,0,1,1.422.07c1.021.17,2.118.308,3.267.41l.653.08a5.493,5.493,0,0,1,.615.11c.73.17,1.46.34,2.152.52a8.065,8.065,0,0,0,1.922.26,26.434,26.434,0,0,1,4.766.41,30.135,30.135,0,0,1,3.305.4,15.6,15.6,0,0,0,2.075.18,25.309,25.309,0,0,1,2.844.17,9.812,9.812,0,0,0,2.767,0,15.2,15.2,0,0,1,2.114-.16c2.2-.04,4.41-.04,6.61,0a12.221,12.221,0,0,1,2.037.19,17.963,17.963,0,0,0,3.382.31h7.379a20.359,20.359,0,0,1,3.459.27,10.509,10.509,0,0,0,2.806.05,5.1,5.1,0,0,0,.615-.09,4.506,4.506,0,0,1,1.384,0c.664.082,1.359.146,2.075.19a16.459,16.459,0,0,0,4.151-.2c.568-.122,1.172-.233,1.806-.33a4.043,4.043,0,0,1,1.883.05c.961.51,1.153.5,3.459.52h11.068a15.992,15.992,0,0,1,2.767.2,22.889,22.889,0,0,0,3.459.29,11.67,11.67,0,0,1,2.575.31c.538.13,1.115.25,1.653.39a9.378,9.378,0,0,0,1.845.29c.945.073,1.84.184,2.652.33a13.048,13.048,0,0,0,2.075.15,27.912,27.912,0,0,0,2.882-.14c1.307-.13,1.922,0,2.191.28l.461.55a3.058,3.058,0,0,0,1.653.33h.73a6.161,6.161,0,0,0,2.921-.44,7.621,7.621,0,0,1,.692-.34,5.329,5.329,0,0,1,2.5,0c.23.11.461.23.653.34a3.843,3.843,0,0,0,1.384.41c1.179.055,2.32.156,3.383.3a8.225,8.225,0,0,0,1.384.09,18.013,18.013,0,0,0,4.151-.3,9.493,9.493,0,0,1,2.767,0l.615.09a15.5,15.5,0,0,0,2.806.19,14.281,14.281,0,0,0,2.729-.22,14.548,14.548,0,0,1,2-.23,10.029,10.029,0,0,0,2.46-.39l1.076-.27a3.237,3.237,0,0,1,.945-.092,2.183,2.183,0,0,1,.823.152l.769.33a4.739,4.739,0,0,0,1.191.21,19.362,19.362,0,0,0,3.574-.07,10.391,10.391,0,0,1,2.767-.11,5.681,5.681,0,0,0,1.96-.11c.73-.17,1.422-.36,2.152-.51a8.036,8.036,0,0,1,2.767,0l.615.11q.255.064.538.12a8.39,8.39,0,0,0,2.729,0,18.6,18.6,0,0,1,4.074-.36h3.843c.242.009.488.009.73,0a3.579,3.579,0,0,0,1.576-.35,1.633,1.633,0,0,1,.269-.18,4.255,4.255,0,0,1,1.42-.275,7.453,7.453,0,0,1,1.732.095l2.882.59a4.126,4.126,0,0,0,.653.09h1.46l1.922-.27c.846-.12,1.883-.14,2.729-.28,0,0,.346-.08.576-.11a16.12,16.12,0,0,1,2.075-.18h7.494a9.182,9.182,0,0,0,1.96-.23,11.5,11.5,0,0,1,2.652-.28h2.229a12.384,12.384,0,0,1,2.729.23,4.892,4.892,0,0,0,1.96-.05c.576-.11,1.537-.31,2.306-.47a8.021,8.021,0,0,1,2.729-.09,11.185,11.185,0,0,0,3.459,0c.437-.051.906-.081,1.384-.09h2.959a16.293,16.293,0,0,0,2.729-.24,5.841,5.841,0,0,1,.576-.11c.688-.059,1.356-.133,2-.22a6.278,6.278,0,0,0,1.307-.46,3.541,3.541,0,0,1,1.845-.15,22.365,22.365,0,0,0,2.805.19,26.465,26.465,0,0,1,2.806.2c1.191.13,1.422.09,2.037-.3a2.187,2.187,0,0,1,.308-.18,6.284,6.284,0,0,1,1.921-.18l1.384.13a7.967,7.967,0,0,0,1.422.08,6.027,6.027,0,0,0,2.075-.5,1.213,1.213,0,0,0,.231-.18.581.581,0,0,1,.269-.57,3.25,3.25,0,0,1,2-.47l3.651-.07c.472-.031.935-.071,1.384-.12,1.345-.31,3.228-.3,4.65-.55a4.2,4.2,0,0,1,.653-.07c.242.015.475.038.692.07a27.341,27.341,0,0,0,3.5.24,14.672,14.672,0,0,1,2.729.25,9.139,9.139,0,0,0,2.075.12,2.728,2.728,0,0,0,1.5-.35,8.161,8.161,0,0,1,.577-.75,1.913,1.913,0,0,1,1.038-.25,19.406,19.406,0,0,1,3.574.06l1.307.16c.5.05.577,0,1.46-.35.5-.21.5-.21,1.768-.15a3.266,3.266,0,0,0,1.729-.24c0-.19.269-.38.384-.57a1.87,1.87,0,0,1,1.084-.361,7.153,7.153,0,0,1,1.76.011,4.986,4.986,0,0,1,.615.1,4.159,4.159,0,0,0,1.025.049,1.939,1.939,0,0,0,.782-.179l.769-.33a5.907,5.907,0,0,1,1.922-.2,10.566,10.566,0,0,1,1.345.14,3.1,3.1,0,0,0,1.23,0c.454-.161.335-.387-.269-.51a9,9,0,0,1-1.153-.22c-.346-.09-.231-.21.346-.28a27.411,27.411,0,0,1,2.882-.12,16.536,16.536,0,0,0,2.767-.23,5.335,5.335,0,0,1,2,.05c.753.161,1.55.308,2.383.44a4.827,4.827,0,0,0,1.384,0c.73-.16,1.46-.34,2.152-.52a9.94,9.94,0,0,1,2-.2h5.15a4.262,4.262,0,0,0,2.229-.41,4.566,4.566,0,0,1,2.075-.77,5.006,5.006,0,0,1,1.345,0l1.345.16a8.715,8.715,0,0,0,2.114,0,12.157,12.157,0,0,0,1.268-.18c.423-.04,1.422,0,2.152,0a4.779,4.779,0,0,0,.73,0,5.7,5.7,0,0,0,2.421-.67.678.678,0,0,0,.269-.17,3.262,3.262,0,0,1,1.653-.32c1.23,0,2.46,0,3.843-.07a8.889,8.889,0,0,0,1.96-.22,8.918,8.918,0,0,1,1.23-.21c1.156-.1,2.286-.228,3.382-.37a5.236,5.236,0,0,1,.692,0,11.233,11.233,0,0,0,2.69,0,10.181,10.181,0,0,1,3.843.16c2.652-.06,5.342,0,7.956-.09a4.1,4.1,0,0,0,1.691-.31l.576-.35c-.25-.181-.25-.379,0-.56a1.769,1.769,0,0,0,.884-.72,1.132,1.132,0,0,1,.269-.37,4.89,4.89,0,0,1,2.383-.28c.22.022.427.053.615.09a20.079,20.079,0,0,0,3.42.29,16.933,16.933,0,0,1,2.767.23,15.077,15.077,0,0,0,2.729.22h2.921c.49-.021.967-.058,1.422-.11a22.052,22.052,0,0,1,4.074-.35,9.31,9.31,0,0,0,2-.2q1.345-.33,2.767-.63a9.153,9.153,0,0,1,1.268-.17,16.623,16.623,0,0,0,1.96-.24l.615-.1a7.947,7.947,0,0,1,1.751-.073,4.244,4.244,0,0,1,1.4.283l.576.35a4.546,4.546,0,0,0,1.768.28c1.457.035,2.924.035,4.381,0a18.118,18.118,0,0,0,2.767-.21,7.951,7.951,0,0,1,2.075,0c.461,0,.884.11,1.345.15a19.659,19.659,0,0,1,2.575.34c.73.17,1.5.33,2.267.48a11.653,11.653,0,0,0,2.037.18h2.959a11.649,11.649,0,0,1,2.037.18,21.628,21.628,0,0,0,2.537.36c.686.075,1.332.172,1.922.29a14.526,14.526,0,0,0,2.075.17h5.112a3.1,3.1,0,0,0,2-.47l.231-.57c0-.16.307-.23,1.23-.44l.461-.69c-.009-.11.112-.218.346-.31a9.455,9.455,0,0,1,2.46-.49q.573-.114,1.191-.21a2.782,2.782,0,0,1,1.691.11,1.246,1.246,0,0,0,.538.34,15.769,15.769,0,0,0,3.305,1,2.9,2.9,0,0,1,.922.29s.423-.07.577-.11a16.031,16.031,0,0,1,2.536-.37,21.544,21.544,0,0,0,2.5-.39,8.036,8.036,0,0,1,1.383-.13c1.23,0,2.46,0,3.843-.06.482-.015.951-.053,1.384-.11q1.249-.2,2.575-.37c.884-.09.961-.15.615-.43a1.318,1.318,0,0,1-.5-.56c.09-.188.581-.347,1.268-.41a18.014,18.014,0,0,1,4.843.26,9.275,9.275,0,0,0,1.384.12c1.191,0,2.421,0,3.651.08a10.242,10.242,0,0,1,1.96.23,12.9,12.9,0,0,0,2.69.26q4.417.06,8.839,0a9.556,9.556,0,0,0,1.384-.13l.577-.11a16.375,16.375,0,0,1,2.69-.28,16.929,16.929,0,0,0,3.382-.31,11.234,11.234,0,0,1,1.345-.16,14.91,14.91,0,0,0,3.113-.47c1.038-.28,2.037-.55,3.113-.81a9.482,9.482,0,0,1,1.268-.2c.936-.07,1.829-.174,2.652-.31a11.457,11.457,0,0,1,2.037-.19c.73,0,1.46-.05,2.191-.07a7.313,7.313,0,0,0,1.268-.17,14.156,14.156,0,0,1,2.729-.25h8.109a13.857,13.857,0,0,0,2.69-.27,11.492,11.492,0,0,1,2-.22h16.372a15.692,15.692,0,0,0,2.767-.21,19.5,19.5,0,0,1,2.037-.21h1.46a13.465,13.465,0,0,0,2.037-.18,21.076,21.076,0,0,1,3.5-.27h11.76a11.1,11.1,0,0,1,2.613.3c.346.09.769.16,1.115.25a15.414,15.414,0,0,0,2.537.37,9.839,9.839,0,0,1,1.307.16l.615.11a8.589,8.589,0,0,0,1.96.23c1.46,0,2.959,0,4.42.05a18.764,18.764,0,0,1,3.42.29,12.682,12.682,0,0,0,2.075.17h13.989a14.509,14.509,0,0,0,2.729-.23,20.49,20.49,0,0,1,4.228-.21l.692.05c.224.028.455.051.692.07a5.735,5.735,0,0,0,1.375-.024c.42-.062.706-.172.777-.3,0-.384.647-.75,1.768-1a5.276,5.276,0,0,1,1.96,0,5.514,5.514,0,0,1,2.229.73,4.17,4.17,0,0,0,2.152.44,18.143,18.143,0,0,1,3.843.42c.538.13,1.191.22,1.768.34a3.023,3.023,0,0,0,1.345,0,10.451,10.451,0,0,1,3.42-.07,42.381,42.381,0,0,1,4.266,1,11.94,11.94,0,0,0,2.652.29h2.921a10.631,10.631,0,0,1,2.037.2q.866.178,1.806.33c1.268.22,1.46.22,2.152-.13a2.669,2.669,0,0,1,.922-.29,17.117,17.117,0,0,1,4.227,0c1.046.16,2.153.291,3.305.39.462.041.911.092,1.345.15a6.882,6.882,0,0,0,2,0,20.178,20.178,0,0,1,2.844-.16,17.223,17.223,0,0,1,2.114.12c.219.031.426.068.615.11a16.028,16.028,0,0,0,2.729.24,17.776,17.776,0,0,1,3.382.34,11.94,11.94,0,0,0,2,.2c.74.01,1.474.041,2.191.09,1.153.1,2.037.36,3.305.41a7.329,7.329,0,0,1,1.307.15,14.934,14.934,0,0,0,2.69.29c.486-.009.974-.009,1.46,0a9.02,9.02,0,0,1,1.922.24q1.02.275,2.152.52a7.112,7.112,0,0,0,1.268.19,18.083,18.083,0,0,1,2.613.32,7.76,7.76,0,0,0,1.307.17,14.879,14.879,0,0,1,2.575.36c.5.13,1.076.26,1.576.4a11.093,11.093,0,0,0,2.613.3h.73a12.922,12.922,0,0,1,2.652.27l2.267.49a5.906,5.906,0,0,0,1.307.15l3.843.07a9.419,9.419,0,0,1,1.96.23l3.843.91q.51.133.961.28a3.109,3.109,0,0,1,1.076.49,2.5,2.5,0,0,0,2.114.06,3.984,3.984,0,0,1,2.383-.08l1.576.4a9.561,9.561,0,0,0,2.037.18c.724.035,1.467.035,2.191,0,.669-.078,1.1-.249,1.115-.44-.047-.191-.33-.374-.807-.52-1.038-.36-2.536-.6-3.574-1a.477.477,0,0,1-.269-.16.127.127,0,0,1,0-.19c.192-.32,2.229-.66,3.382-.32.307.1.73.17,1.038.27a9.72,9.72,0,0,0,2.421.4,11.939,11.939,0,0,1,1.96.25c.73.17,1.422.35,2.191.51a6.646,6.646,0,0,0,1.345.14c.485.015.975.015,1.46,0a5.85,5.85,0,0,0,2.69-.46h1.422a10.88,10.88,0,0,1,2.037.2c.961.2,1.845.42,2.767.63a5.831,5.831,0,0,0,.653.09,17.845,17.845,0,0,0,3.574,0,12.288,12.288,0,0,0,1.23-.2,12.011,12.011,0,0,1,2.037-.2h5.88a17.744,17.744,0,0,1,3.421.28,16.083,16.083,0,0,0,2.767.24h2.191a13.513,13.513,0,0,1,2.729.25,19.512,19.512,0,0,0,2.767.22h2.191a15.877,15.877,0,0,1,2.767.23,11.94,11.94,0,0,0,2,.2h2.959a4.761,4.761,0,0,1,2.267.38,4.744,4.744,0,0,0,1.922.8c.961.21,1.845.42,2.806.62a7.881,7.881,0,0,0,1.345.14h2.959a17.878,17.878,0,0,1,2.729.25,12.545,12.545,0,0,0,2.652.27h3.843a19.728,19.728,0,0,1,3.459.26,16.638,16.638,0,0,0,2.767.21h.73a4.169,4.169,0,0,1,1.691.31,7.08,7.08,0,0,0,2.46.94l1.653.37a3.2,3.2,0,0,0,.95.084,1.831,1.831,0,0,0,.78-.164,7.666,7.666,0,0,1,.807-.31,6.833,6.833,0,0,1,2.652-.11,3.711,3.711,0,0,0,2.344.64,9.741,9.741,0,0,1,1.307.17,20.577,20.577,0,0,0,2.575.36q1.307.172,2.536.38c.653.08,1.384.13,2.037.2s1.307.19,1.922.28a10.932,10.932,0,0,0,1.422.08,19.289,19.289,0,0,1,3.459.27,15.482,15.482,0,0,0,2.767.23l4.42.05a9.941,9.941,0,0,1,2,.2,13.716,13.716,0,0,0,2.69.29h2.921a13.609,13.609,0,0,1,2.075.17,20.4,20.4,0,0,0,3.459.26h5.88a11.887,11.887,0,0,1,2.075.17,20.314,20.314,0,0,0,3.459.28c1.458.03,2.923.03,4.381,0,.49-.021.967-.058,1.422-.11.423-.05.845-.13,1.268-.19l4.074-.4c.243,0,.487,0,.73,0a32.352,32.352,0,0,0,3.536.22c.729-.015,1.462-.015,2.191,0a12.681,12.681,0,0,1,2.075.17,17.973,17.973,0,0,0,3.421.29h1.46a15.682,15.682,0,0,1,3.382.33,11.942,11.942,0,0,0,2,.2c1.232,0,2.458.04,3.651.12v-46.66Zm295.506,72.37c-.409-.058-.663-.169-.663-.29s.254-.232.663-.29c.388.062.625.172.625.29s-.237.228-.625.29Zm7.879-2c-.692.08-1.191-.06-1.153-.3s.692-.36,1.307-.26c.437.053.675.177.577.3.03.128-.267.246-.73.29ZM645.583,170.7s-.307.07-.461.11a1.329,1.329,0,0,1-.467-.108c-.094-.051-.106-.109-.032-.162l.461-.11a1.39,1.39,0,0,1,.578.113c.1.062.073.133-.079.187Zm6.3-1.71a1.532,1.532,0,0,1-.846.26A5.057,5.057,0,0,1,649.2,169c-.555-.128-.726-.334-.423-.51a2.622,2.622,0,0,1,.576-.11c.242-.01.489-.01.73,0a4.96,4.96,0,0,1,1.554.2c.362.128.456.295.252.444Zm500.427,1.71-.5.1a1.1,1.1,0,0,1-.438-.117c-.079-.053-.074-.112.016-.163l.538-.09a1.075,1.075,0,0,1,.5.123c.077.06.034.127-.116.177Zm139.432-7.32a5.3,5.3,0,0,1-1.806-.08.846.846,0,0,1-.23-.13c0-.14.961-.22,1.729-.16s.769.13.692.23A.638.638,0,0,1,1291.745,163.384Zm463.455-5h0a2.383,2.383,0,0,1-1.076,0c-.461-.1-.461-.2,0-.28a3.145,3.145,0,0,1,.615,0c.382.049.551.168.384.27h0Z" transform="translate(-0.42 -122.793)" fill="#fff"/>
  <path id="Path_469" data-name="Path 469" d="M327.04,30.55h0v0Z" transform="translate(335.994 17.42)" fill="#fff"/>
  <path id="Path_470" data-name="Path 470" d="M327.46,153h0v.09Z" transform="translate(335.651 -105.09)" fill="#fff"/>
</svg>
